<svg width="48" height="32" viewBox="0 0 48 32" fill="none" xmlns="http://www.w3.org/2000/svg">
  <rect width="48" height="32" rx="4" fill="white"/>
  <path d="M29.6 10H18.4V22H29.6V10Z" fill="#FF5F00"/>
  <path d="M19.2 16C19.2 13.6 20.4 11.4 22.2 10C20.8 8.8 19 8 17 8C12.6 8 9 11.6 9 16C9 20.4 12.6 24 17 24C19 24 20.8 23.2 22.2 22C20.4 20.6 19.2 18.4 19.2 16Z" fill="#EB001B"/>
  <path d="M39 16C39 20.4 35.4 24 31 24C29 24 27.2 23.2 25.8 22C27.6 20.6 28.8 18.4 28.8 16C28.8 13.6 27.6 11.4 25.8 10C27.2 8.8 29 8 31 8C35.4 8 39 11.6 39 16Z" fill="#F79E1B"/>
</svg>