<svg width="48" height="32" viewBox="0 0 48 32" fill="none" xmlns="http://www.w3.org/2000/svg">
  <rect width="48" height="32" rx="4" fill="white"/>
  <path d="M33.2 13.6C33.2 16.4 31.2 18.4 28.4 18.4H26.8C26.4 18.4 26 18.8 26 19.2L25.6 21.6C25.6 22 25.2 22.4 24.8 22.4H22.8C22.4 22.4 22.2 22 22.2 21.8L24 10.4C24 10 24.4 9.6 24.8 9.6H30C32 9.6 33.2 11.2 33.2 13.6Z" fill="#009CDE"/>
  <path d="M18.8 13.6C18.8 16.4 16.8 18.4 14 18.4H12.4C12 18.4 11.6 18.8 11.6 19.2L11.2 21.6C11.2 22 10.8 22.4 10.4 22.4H8.4C8 22.4 7.8 22 7.8 21.8L9.6 10.4C9.6 10 10 9.6 10.4 9.6H15.6C17.6 9.6 18.8 11.2 18.8 13.6Z" fill="#003087"/>
  <path d="M18.8 13.6C18.8 16.4 16.8 18.4 14 18.4H12.4C12 18.4 11.6 18.8 11.6 19.2L11.2 21.6C11.2 22 10.8 22.4 10.4 22.4H8.4C8 22.4 7.8 22 7.8 21.8L9.6 10.4C9.6 10 10 9.6 10.4 9.6H15.6C17.6 9.6 18.8 11.2 18.8 13.6Z" fill="#003087"/>
</svg>