<svg width="48" height="32" viewBox="0 0 48 32" fill="none" xmlns="http://www.w3.org/2000/svg">
  <rect width="48" height="32" rx="4" fill="white"/>
  <path d="M24.8 11.2C25.6 10.4 26 9.2 26 8C26 7.8 26 7.6 26 7.4C24.8 7.6 23.8 8.2 23 9C22.2 9.8 21.8 10.8 21.8 12C21.8 12.2 21.8 12.4 21.8 12.4C21.8 12.4 22 12.4 22.2 12.4C23.2 12.4 24 12 24.8 11.2Z" fill="black"/>
  <path d="M26 12.8C24.6 12.8 23.4 13.4 22.6 13.4C21.8 13.4 20.6 12.8 19.4 12.8C17.8 12.8 16 13.8 15 15.6C14 17.4 14.2 20.8 16 23.6C16.8 24.8 17.8 26.2 19.2 26.2C20.4 26.2 20.8 25.4 22.4 25.4C24 25.4 24.4 26.2 25.6 26.2C27 26.2 28 24.8 28.8 23.6C29.4 22.8 29.6 22 30 20.8C28 20 27.2 18.6 27.2 17C27.2 15.4 28.2 14.2 30 13.6C29.2 12.8 27.8 12.8 26 12.8Z" fill="black"/>
</svg>