<svg width="48" height="32" viewBox="0 0 48 32" fill="none" xmlns="http://www.w3.org/2000/svg">
  <rect width="48" height="32" rx="4" fill="white"/>
  <path d="M18.4 21.6H14.8L17 10.4H20.6L18.4 21.6Z" fill="#00579F"/>
  <path d="M31.2 10.6C30.4 10.4 29.2 10.2 27.8 10.2C24.6 10.2 22.4 11.8 22.4 14.2C22.4 16 23.8 17 25.6 17.6C27.4 18.2 28 18.6 28 19.2C28 20 27 20.4 26 20.4C24.6 20.4 23.8 20.2 22.6 19.8L22.2 19.6L21.8 22.6C22.8 23 24.4 23.2 26 23.2C29.4 23.2 31.6 21.6 31.6 19C31.6 17.6 30.8 16.6 28.4 15.8C27 15.2 26.2 14.8 26.2 14.2C26.2 13.6 26.8 13 28.2 13C29.4 13 30.2 13.2 30.8 13.4L31.2 13.6L31.6 10.8L31.2 10.6Z" fill="#00579F"/>
  <path d="M36.4 17.4C36.6 16.8 37.6 14 37.6 14H39.2C39.4 14.4 39.8 15.4 40 16L40.8 14H44L41.8 21.6H38.2L36.4 17.4Z" fill="#00579F"/>
  <path d="M12.8 14L12.6 15C13.8 15.4 15.6 16 17.4 16.6L16.4 10.6C16.2 10 15.8 10 15.4 10H11.2L11 10.4C12.8 10.8 14.2 12 14.8 14H12.8Z" fill="#FAA61A"/>
</svg>